<svg class="logo__logotype" height="32" viewBox="0 0 149 32" width="149" xmlns="http://www.w3.org/2000/svg">
  <path d="M47.37,27.001c-0.389,0.011-0.713-0.296-0.724-0.685c-0.002-0.039,0.001-0.077,0.006-0.115l2.029-18.163c0.094-0.95-0.6-1.797-1.55-1.892c-0.061-0.006-0.121-0.009-0.182-0.008c0,0-8.814-0.638-12.214,1.065c-3.354,1.679-4.873,6.576-5.434,11.865c-0.682,6.433-0.174,12.975,5.955,12.975c2.633,0,4.774-0.32,6.22-2.332c0.006-0.008-0.009,0.141-0.031,0.363c-0.1,0.965,0.602,1.827,1.565,1.928c0.027,0.002,0.055,0.004,0.082,0.006l5.754,0.032l0.47-4.457c0.032-0.288-0.176-0.548-0.464-0.579C48.836,27.002,48.818,27,48.8,27L47.37,27.001L47.37,27.001z M43.65,11.78c-0.123,2.98-1.71,12.739-1.71,12.739c-0.047,0.422-0.242,0.812-0.551,1.101c-1.146,1.073-2.7,1.596-4.261,1.435c-2.68-0.16-3.465-1.548-2.766-7.982c0.5-4.63,1.091-6.033,2.529-7.119c1.372-1.035,3.415-0.988,6.137-0.894l0,0c0.347,0.019,0.619,0.305,0.619,0.653C43.649,11.731,43.651,11.763,43.65,11.78z M17.276,6.031c-0.044,0.289-0.072,0.587-0.093,0.882L17.276,6.031L17.276,6.031z M17.276,6.031L17.276,6.031h-6.55l0,0H17.276z M10.726,6.031L10.726,6.031h-1.93c-1.15,0.039-2.282,0.308-3.328,0.79c-0.268,0.121-0.535,0.253-0.8,0.4c-1.72,1.163-3.059,2.806-3.85,4.725c-0.655,3.039,0.594,6.171,3.16,7.925c0.079,0.049,0.159,0.1,0.242,0.143c1.63,0.9,3.6,1.301,4.8,1.99c0.953,0.501,1.539,1.499,1.512,2.575c-0.036,0.851-0.535,1.612-1.3,1.985c-1.467,0.713-4.737,0.47-5.819,0.47H0.881l-0.881,5h7.285c1.13-0.025,2.246-0.247,3.3-0.656c3.225-1.136,5.101-4.043,5.101-8.073c0-3.149-2.892-5.306-6.088-6.479c-0.129-0.048-0.257-0.093-0.386-0.138c-1.779-0.6-3.778-1.754-2.87-4.246c0.644-1.762,3.464-1.408,5.014-1.375h0.049c0.192,0,0.418,0,0.667,0h1.7c0.624-0.005,1.233-0.19,1.756-0.533C16.368,10,16.927,9.118,17.05,8.129l0.129-1.209c0.021-0.3,0.049-0.593,0.093-0.882h-6.55L10.726,6.031z M24.485,6l0.432-4.04c0.048-0.469-0.294-0.888-0.764-0.936c-0.029-0.003-0.06-0.004-0.089-0.004h-3.516c-0.333,0.006-0.611,0.255-0.654,0.585l-0.471,4.276l-0.591,5.438c0.001,0.009,0.001,0.018,0,0.026l-1.3,12.719l-0.58,5.471c-0.154,1.205,0.697,2.307,1.902,2.461c0.12,0.016,0.242,0.021,0.362,0.018h5l0.471-4.41c0.037-0.285-0.164-0.546-0.449-0.583c-0.023-0.003-0.047-0.005-0.07-0.005h-1.062c-0.397,0.016-0.731-0.293-0.746-0.69c-0.002-0.036,0-0.073,0.004-0.109l0.117-1.048l1.399-13.5c0.046-0.371,0.361-0.649,0.735-0.648h2.606c1.661-0.018,3.058-1.253,3.278-2.9l0.223-2.122h-6.238V6z M61.01,6.177c-0.264,0.002-0.516,0.11-0.699,0.3l-1.072,1.354c-0.38,0.138-0.787,0.184-1.188,0.135l-0.016-0.8c0.053-0.5,0.125-1-0.384-1l-3.427-0.188c-0.351,0.002-0.652,0.244-0.731,0.585l-2.668,25.475h5.049l2.153-20.36c0.01-0.075,0.031-0.148,0.062-0.218c0.134-0.292,0.438-0.467,0.758-0.435h2.955c0.035,0,0.07,0,0.101,0c1.537-0.126,2.725-1.403,2.739-2.945l0.033-2.091L61.01,6.177z M95.283,27.001c-0.39,0.011-0.714-0.296-0.725-0.685c-0.001-0.039,0.001-0.077,0.007-0.115l1.093-18.159c0.095-0.95-0.6-1.797-1.55-1.892c-0.06-0.006-0.12-0.009-0.182-0.008c0,0-8.281-0.638-11.682,1.065c-3.354,1.679-4.873,6.576-5.433,11.865c-0.683,6.433-0.175,12.975,5.955,12.975c2.632,0,4.773-0.165,6.219-2.176c0.006-0.008-0.008,0.141-0.031,0.363c-0.088,0.907,0.575,1.713,1.481,1.802c0.056,0.005,0.111,0.009,0.167,0.008h5.755l0.47-4.457c0.032-0.288-0.176-0.548-0.464-0.579c-0.018-0.002-0.035-0.004-0.053-0.004h-1.024L95.283,27.001z M90.813,12.155c-0.123,2.98-1.241,12.364-1.241,12.364c-0.047,0.422-0.242,0.812-0.551,1.101c-1.193,1.077-2.786,1.598-4.386,1.435c-2.68-0.16-3.466-1.548-2.766-7.982c0.5-4.63,1.091-5.658,2.529-6.744c1.372-1.035,3.072-0.988,5.793-0.894l0,0c0.348,0.018,0.62,0.305,0.62,0.653C90.812,12.104,90.814,12.138,90.813,12.155L90.813,12.155z M71.992,6l0.432-4.057c0.048-0.469-0.294-0.887-0.763-0.935c-0.029-0.003-0.06-0.004-0.09-0.004h-3.513c-0.333,0.006-0.611,0.254-0.655,0.584l-0.47,4.293l-0.592,5.438c0.001,0.009,0.001,0.018,0,0.026l-1.3,12.854l-0.584,5.332c-0.157,1.218,0.702,2.333,1.92,2.491c0.114,0.015,0.229,0.021,0.345,0.018h5.5l0.47-4.44c0.037-0.285-0.164-0.547-0.449-0.583c-0.023-0.003-0.047-0.005-0.07-0.005h-1.594c-0.387,0.01-0.708-0.295-0.718-0.682c-0.001-0.039,0.001-0.079,0.007-0.118l0.117-1.048l1.399-13.5c0.047-0.371,0.362-0.649,0.735-0.648h2.919c1.661-0.019,3.058-1.253,3.279-2.9l0.221-2.122h-6.55L71.992,6z M112.692,22.549c3.433-2.414,3.854-7.458,3.888-7.793c0.079-0.767,0.683-5.077-1.925-7.371c-0.921-0.693-2.019-1.112-3.167-1.209c-1.606-0.235-9.87-0.152-9.87-0.152c-0.801,0-1.484,0.58-1.616,1.37l0,0c0,0.012,0,0.023-0.006,0.035c0,0.003,0,0.006,0,0.01c-0.012,0.068-0.02,0.138-0.022,0.207c-0.21,1.91-1.193,16.454-1.278,17.206c-0.044,0.389-0.065,0.779-0.064,1.17c-0.063,1.63,0.486,3.225,1.54,4.47c0.27,0.257,0.572,0.476,0.9,0.649c0.54,0.324,1.121,0.574,1.728,0.744c1.186,0.141,2.379,0.188,3.571,0.141c0.236,0,7.601,0,7.601,0l0.649-4.409c0.03-0.283-0.174-0.537-0.457-0.567c-0.017-0.002-0.033-0.003-0.05-0.003h-7.811c-1.426,0-2.916-0.095-2.887-0.619c0-0.084,0.239-2.618,0.239-2.618c1.912,0.275,6.254,0.694,9.033-1.26H112.692z M104.186,18.822l0.648-6.8c0.005-0.204,0.038-0.406,0.101-0.6v-0.007c0.071-0.21,0.252-0.364,0.472-0.4h2.931c2.009,0,3.887,0.788,3.301,4.6c-0.672,4.435-7.372,3.416-7.456,3.207H104.186z M109.786,3.885c0.859,0.68,1.902,1.088,2.995,1.171c0.439-0.047,0.757-0.442,0.71-0.881c-0.016-0.137-0.065-0.269-0.146-0.381c0,0-1.657-1.879-2.38-2.911c-0.766-1.004-2.2-1.198-3.205-0.432c-0.099,0.075-0.191,0.158-0.276,0.249c-0.9,1.041-3.078,3.038-3.078,3.038c-0.421,0.6-0.208,1.318,0.508,1.318c1.206-0.096,2.362-0.52,3.344-1.225c0.468-0.302,1.074-0.28,1.52,0.054H109.786z" fill="#FFF">
  </path>
</svg>
