<svg class="logo__symbol" height="32" viewBox="0 0 24 32" width="24" xmlns="http://www.w3.org/2000/svg">
  <path d="M249.956,194.925V191.15s0-.006,0-0.008,0-.018,0-0.026l-0.006-.025s0,0,0-.008a0.119,0.119,0,0,1-.009-0.015,0.253,0.253,0,0,0-.013-0.022l-0.018-.019c-0.006,0-.011-0.011-0.018-0.016L249.862,191l-0.014-.008-0.007,0a0.122,0.122,0,0,0-.026-0.006,0.109,0.109,0,0,0-.026,0H232.8a0.173,0.173,0,0,0-.123.051l-5.651,5.956a0.185,0.185,0,0,0-.034.05c0,0.005,0,.01,0,0.016a0.146,0.146,0,0,0-.01.046s0,0.007,0,.011v6.053a0.172,0.172,0,0,0,.051.123l5.2,5.195-5.2,4.852a0.185,0.185,0,0,0-.034.05s0,0.011,0,.016a0.152,0.152,0,0,0-.01.047s0,0.006,0,.01v3.293a0.174,0.174,0,0,0,.174.174h17.363a0.17,0.17,0,0,0,.066-0.014,0.156,0.156,0,0,0,.057-0.037h0l5.254-5.3a0.17,0.17,0,0,0,.051-0.123v-6.3s0-.006,0-0.01a0.146,0.146,0,0,0-.01-0.046c0-.006,0-0.011,0-0.016a0.158,0.158,0,0,0-.034-0.05l-4.458-5.048,4.472-4.926A0.173,0.173,0,0,0,249.956,194.925Zm-0.934,11.042v2.012H232.987v-2.012h16.035Zm-21.038-9.014h15.99V199h-15.99v-2.043Zm5-4.984h15.033l-3.844,4.008H229.022Zm-5,8.543,4.312,4.753V207.5l-4.312-4.553v-2.432ZM233,208.941h15.168l-4.089,4.029H229.093Zm-5.041,5h16.018v2.061H227.956v-2.061Zm17,1.478v-1.776l4.065-4.455v1.934Zm-12.044-10.449-4.366-4.989h15.529l4.432,4.989H232.913Zm12.033-5.544v-2.957l4.051-4.4v2.783Z" transform="translate(-226.969 -184.969)" fill="#FFF">
  </path>
</svg>
